# xmcd
#
# Track frame offsets:
#	150
#	18404
#	36553
#	55520
#	67214
#	91331
#	106356
#	121655
#	136887
#	153211
#	175418
#	189782
#	206915
#	218644
#	236102
#	249278
#	274508
#
# Disc length: 4440 seconds
#
# Revision: 1
# Processed by: cddbd v1.5.1PL0 Copyright (c) Steve Scherf et al.
# Submitted via: audiograbber 1.83.01
#
DISCID=e9115611
DTITLE=Centre Of Music Television - Country Music Festival CD3
DYEAR=1900
DGENRE=Country
TTITLE0=Wynonna - Heaven Help Me
TTITLE1=Trace Adkins - (This Aint`t) No Thinkin`Thing
TTITLE2=Hal Ketchum - She Is
TTITLE3=Asleep At The Wheel - Cherokee Boogie
TTITLE4=Deana Carter - Angels Workin Overtime
TTITLE5=Jhon Berry - Your Love Amazes Me
TTITLE6=Dean Miller - Nowhere. USA
TTITLE7=Billy Dean - It`s What I Do
TTITLE8=Patty Loveles - Lovin`All Night
TTITLE9=Tim McGraw - Please Remember Me
TTITLE10=Teresa - Brave New Girls (Cady`s Song)
TTITLE11=Joe Diffe - Honky Tonk Attitude
TTITLE12=Sherrie´ Autin - Put Your Heart Into It
TTITLE13=Cleve Francis - Walkin`
TTITLE14=The Ranch - Walkin`The Country
TTITLE15=Ricky Lynn Gregg - If I HadA Cheatin`Heart
TTITLE16=Daten - CD
EXTD=
EXTT0=
EXTT1=
EXTT2=
EXTT3=
EXTT4=
EXTT5=
EXTT6=
EXTT7=
EXTT8=
EXTT9=
EXTT10=
EXTT11=
EXTT12=
EXTT13=
EXTT14=
EXTT15=
EXTT16=
PLAYORDER=
